<?xml version="1.0" encoding="UTF-8"?>
<svg width="32" height="32" viewBox="0 0 32 32" fill="none" xmlns="http://www.w3.org/2000/svg">
    <!-- Fundo -->
    <rect width="32" height="32" rx="6" fill="#1a237e"/>
    
    <!-- Prédio do Hotel -->
    <path d="M8 24V10L16 6L24 10V24H8Z" fill="white"/>
    
    <!-- Janelas -->
    <rect x="11" y="13" width="3" height="3" fill="#1a237e"/>
    <rect x="18" y="13" width="3" height="3" fill="#1a237e"/>
    <rect x="11" y="18" width="3" height="3" fill="#1a237e"/>
    <rect x="18" y="18" width="3" height="3" fill="#1a237e"/>
    
    <!-- Porta -->
    <path d="M14 24V19H18V24H14Z" fill="#1a237e"/>
    
    <!-- Telhado -->
    <path d="M6 11L16 5L26 11" stroke="white" stroke-width="2" stroke-linecap="round"/>
    
    <!-- Estrela -->
    <path d="M16 2L17.5 5H20.5L18 7L19 10L16 8.5L13 10L14 7L11.5 5H14.5L16 2Z" fill="#FFD700"/>
</svg> 